<svg xmlns="http://www.w3.org/2000/svg" xmlns:xlink="http://www.w3.org/1999/xlink" preserveAspectRatio="xMidYMid" width="49" height="48.06" viewBox="0 0 49 48.06">
  <defs>
    <style>
      .cls-1 {
        fill: #fff;
        filter: url(#drop-shadow-1);
        fill-rule: evenodd;
      }
    </style>

    <filter id="drop-shadow-1" filterUnits="userSpaceOnUse">
      <feOffset dy="1" in="SourceAlpha"/>
      <feGaussianBlur stdDeviation="1" result="dropBlur"/>
      <feFlood flood-opacity="0.25"/>
      <feComposite operator="in" in2="dropBlur" result="dropShadowComp"/>
      <feComposite in="SourceGraphic" result="shadowed"/>
    </filter>
  </defs>
  <path d="M24.506,46.540 C12.080,46.540 2.006,36.466 2.006,24.039 C2.006,11.613 12.080,1.539 24.506,1.539 C36.932,1.539 47.006,11.613 47.006,24.039 C47.006,36.466 36.932,46.540 24.506,46.540 ZM20.755,11.061 C17.312,11.061 15.737,11.978 14.691,12.872 C13.779,13.784 12.564,15.145 12.598,17.390 C12.598,19.331 14.032,22.695 18.134,22.711 C18.404,22.695 18.567,22.706 19.208,22.655 C18.989,23.161 18.893,23.477 18.876,23.949 C18.876,24.810 19.186,25.411 19.878,26.222 C17.903,26.424 15.374,26.531 13.464,27.797 C10.370,29.687 10.696,31.954 10.696,31.920 C10.933,36.899 18.139,36.798 18.117,36.764 C23.900,36.708 26.820,33.526 26.820,30.340 C26.820,28.625 26.135,27.042 24.191,25.638 C23.338,24.861 22.090,24.406 22.095,23.275 C22.095,21.216 25.886,20.773 25.886,16.788 C25.753,13.748 23.703,12.438 23.441,12.269 C23.496,12.269 25.542,12.270 25.542,12.270 L27.714,11.061 C27.714,11.061 20.789,11.061 20.755,11.061 ZM37.789,14.068 L34.617,14.068 L34.617,10.895 L32.501,10.895 L32.501,14.068 L29.328,14.068 L29.328,16.183 L32.501,16.183 L32.501,19.356 L34.617,19.356 L34.617,16.183 L37.789,16.183 L37.789,14.068 ZM19.469,21.798 C16.583,21.639 15.637,17.360 15.637,17.360 C15.637,17.360 14.515,12.306 18.561,12.261 C21.720,11.920 22.802,16.778 22.802,16.778 C22.802,16.778 23.947,21.798 19.469,21.798 ZM24.738,31.712 C24.654,31.847 25.126,35.149 19.725,35.352 C13.920,35.251 13.796,31.572 13.796,31.234 C13.772,27.398 18.941,27.208 20.271,27.166 C21.419,27.313 24.698,29.217 24.738,31.712 Z" class="cls-1"/>
</svg>
