<svg xmlns="http://www.w3.org/2000/svg" xmlns:xlink="http://www.w3.org/1999/xlink" preserveAspectRatio="xMidYMid" width="49" height="48.94" viewBox="0 0 49 48.94">
  <defs>
    <style>
      .cls-1 {
        fill: #fff;
        filter: url(#drop-shadow-1);
        fill-rule: evenodd;
      }
    </style>

    <filter id="drop-shadow-1" filterUnits="userSpaceOnUse">
      <feOffset dy="1" in="SourceAlpha"/>
      <feGaussianBlur stdDeviation="1" result="dropBlur"/>
      <feFlood flood-opacity="0.25"/>
      <feComposite operator="in" in2="dropBlur" result="dropShadowComp"/>
      <feComposite in="SourceGraphic" result="shadowed"/>
    </filter>
  </defs>
  <path d="M24.504,46.981 C12.078,46.981 2.004,36.907 2.004,24.480 C2.004,12.054 12.078,1.981 24.504,1.981 C36.931,1.981 47.004,12.054 47.004,24.480 C47.004,36.907 36.931,46.981 24.504,46.981 ZM14.842,13.631 C13.393,13.631 12.219,14.806 12.219,16.255 C12.219,17.704 13.393,18.879 14.842,18.879 C16.291,18.879 17.465,17.704 17.465,16.255 C17.465,14.806 16.291,13.631 14.842,13.631 ZM17.622,20.534 L12.531,20.534 L12.531,35.900 L17.622,35.900 L17.622,20.534 ZM30.703,20.159 C27.580,20.190 26.635,21.986 26.151,22.720 L26.151,20.440 L20.995,20.440 L20.995,35.837 L26.148,35.837 L26.148,27.655 C26.148,27.655 25.779,24.500 28.927,24.500 C31.261,24.500 31.301,27.019 31.277,27.362 C31.275,27.201 31.273,27.180 31.270,27.374 C31.270,27.418 31.274,27.408 31.277,27.362 C31.288,28.411 31.270,35.868 31.270,35.868 L36.329,35.884 C36.329,35.884 36.392,27.858 36.392,27.826 C36.392,26.374 36.418,20.159 30.703,20.159 Z" class="cls-1"/>
</svg>
