<svg xmlns="http://www.w3.org/2000/svg" xmlns:xlink="http://www.w3.org/1999/xlink" preserveAspectRatio="xMidYMid" width="34" height="34" viewBox="0 0 34 34">
  <defs>
    <style>
      .cls-1 {
        fill: #fff;
        filter: url(#drop-shadow-1);
        fill-rule: evenodd;
      }
    </style>
    <filter id="drop-shadow-1" filterUnits="userSpaceOnUse">
      <feOffset dy="1" in="SourceAlpha"/>
      <feGaussianBlur stdDeviation="1" result="dropBlur"/>
      <feFlood flood-opacity="0.25"/>
      <feComposite operator="in" in2="dropBlur" result="dropShadowComp"/>
      <feComposite in="SourceGraphic" result="shadowed"/>
    </filter>
  </defs>
  <path d="M17.006,32.372 C8.528,32.372 1.656,25.490 1.656,17.000 C1.656,8.510 8.528,1.628 17.006,1.628 C25.484,1.628 32.356,8.510 32.356,17.000 C32.356,25.490 25.484,32.372 17.006,32.372 ZM25.167,15.480 C23.981,11.347 21.132,11.347 21.132,11.347 C21.132,11.347 22.341,10.659 22.307,10.240 C21.934,9.973 21.188,10.508 21.125,10.508 C21.314,10.376 21.202,9.998 20.958,9.856 C20.597,9.891 20.283,10.555 20.283,10.555 C20.283,10.555 20.107,10.229 19.946,10.229 C18.039,10.753 16.696,15.160 16.702,15.166 C10.476,10.957 10.063,11.766 10.063,11.777 C9.575,12.872 11.470,14.258 11.470,14.258 L10.928,14.274 C10.928,14.274 10.132,14.248 10.306,14.817 C10.483,15.545 11.427,16.299 11.435,16.307 C11.900,16.528 12.482,16.318 12.482,16.318 C12.482,16.318 11.865,16.641 11.475,16.885 C10.833,17.300 11.294,17.669 11.364,17.739 C12.201,18.636 13.516,18.578 13.516,18.578 C13.516,18.578 12.905,19.311 12.900,19.590 C12.900,20.044 13.307,20.324 13.342,20.359 C13.706,20.609 14.244,20.638 14.249,20.638 C10.880,24.213 6.819,20.617 6.819,20.604 C7.273,23.223 11.121,25.750 17.888,24.772 C23.376,23.899 25.132,17.879 25.132,17.879 C25.132,17.879 27.399,18.007 27.655,16.656 C26.946,16.784 25.923,16.575 25.923,16.575 C25.923,16.575 27.667,15.818 27.748,14.910 C26.725,15.701 25.202,15.480 25.167,15.480 Z" class="cls-1"/>
</svg>
