<svg xmlns="http://www.w3.org/2000/svg" xmlns:xlink="http://www.w3.org/1999/xlink" preserveAspectRatio="xMidYMid" width="35" height="33.97" viewBox="0 0 35 33.97">
  <defs>
    <filter id="drop-shadow-1" filterUnits="userSpaceOnUse">
      <feOffset dy="1" in="SourceAlpha"/>
      <feGaussianBlur stdDeviation="1" result="dropBlur"/>
      <feFlood flood-opacity="0.25"/>
      <feComposite operator="in" in2="dropBlur" result="dropShadowComp"/>
      <feComposite in="SourceGraphic" result="shadowed"/>
    </filter>
  </defs>
  <path d="M17.493,32.359 C9.016,32.359 2.143,25.477 2.143,16.988 C2.143,8.498 9.016,1.616 17.493,1.616 C25.971,1.616 32.843,8.498 32.843,16.988 C32.843,25.477 25.971,32.359 17.493,32.359 ZM17.656,14.336 C17.656,10.863 13.882,11.142 13.882,11.142 L8.283,11.144 L8.291,23.467 L13.514,23.432 C13.514,23.432 18.007,23.778 18.047,19.743 C18.047,17.393 16.152,16.829 16.152,16.829 C16.152,16.829 17.656,16.284 17.656,14.336 ZM25.992,11.812 L21.200,11.812 L21.200,13.187 L25.992,13.187 L25.992,11.812 ZM23.541,13.920 C18.955,13.920 19.180,18.733 19.180,18.733 C19.180,18.733 18.925,23.472 23.631,23.472 C27.255,23.472 27.782,20.480 27.782,20.480 L25.451,20.480 C25.451,20.480 25.075,21.535 23.691,21.519 C21.421,21.519 21.496,19.321 21.496,19.321 L27.887,19.290 C27.887,19.290 28.549,13.920 23.541,13.920 ZM23.526,15.887 C25.496,15.887 25.541,17.755 25.541,17.755 L21.541,17.785 C21.541,17.785 21.691,15.887 23.526,15.887 ZM13.411,21.299 L10.804,21.289 L10.794,18.005 C10.794,18.005 12.380,18.016 13.446,18.016 C13.442,18.016 15.456,17.875 15.456,19.542 C15.456,21.539 13.411,21.299 13.411,21.299 ZM13.431,15.993 L10.799,16.008 L10.799,13.282 L13.072,13.294 C13.072,13.294 15.205,13.011 15.205,14.607 C15.205,16.204 13.431,15.993 13.431,15.993 Z" class="cls-1"/>
</svg>
