<svg xmlns="http://www.w3.org/2000/svg" xmlns:xlink="http://www.w3.org/1999/xlink" preserveAspectRatio="xMidYMid" width="34" height="33.75" viewBox="0 0 34 33.75">
  <defs>
    <style>
      .cls-1 {
        fill: #fff;
        filter: url(#drop-shadow-1);
        fill-rule: evenodd;
      }
    </style>
    <filter id="drop-shadow-1" filterUnits="userSpaceOnUse">
      <feOffset dy="1" in="SourceAlpha"/>
      <feGaussianBlur stdDeviation="1" result="dropBlur"/>
      <feFlood flood-opacity="0.25"/>
      <feComposite operator="in" in2="dropBlur" result="dropShadowComp"/>
      <feComposite in="SourceGraphic" result="shadowed"/>
    </filter>
  </defs>
  <path d="M17.003,32.259 C8.526,32.259 1.653,25.376 1.653,16.886 C1.653,8.396 8.526,1.515 17.003,1.515 C25.481,1.515 32.353,8.396 32.353,16.886 C32.353,25.376 25.481,32.259 17.003,32.259 ZM16.906,4.981 C10.306,4.981 4.955,10.350 4.955,16.974 C4.955,23.597 10.306,28.966 16.906,28.966 C23.506,28.966 28.857,23.597 28.857,16.974 C28.857,10.350 23.506,4.981 16.906,4.981 ZM19.763,16.460 C19.491,15.775 19.210,15.104 18.912,14.459 C22.489,13.079 24.541,10.708 24.541,10.708 C24.541,10.708 26.565,12.888 26.747,16.443 C26.747,16.428 22.827,15.873 19.763,16.460 ZM14.408,7.407 C14.408,7.407 19.204,5.876 23.347,9.487 C21.113,11.760 18.130,12.875 18.130,12.875 C16.811,9.898 14.408,7.407 14.408,7.407 ZM7.264,14.891 C7.264,14.891 7.979,10.460 12.464,8.143 C14.914,11.098 16.184,13.563 16.184,13.563 C16.184,13.563 12.527,14.754 7.264,14.891 ZM17.801,16.894 C17.801,16.894 13.133,17.746 9.401,23.388 C6.728,20.286 7.062,16.598 7.061,16.579 C13.789,16.367 17.002,15.130 17.002,15.130 L17.801,16.894 ZM18.480,18.619 C19.592,21.198 20.444,26.205 20.444,26.205 C20.444,26.205 15.609,28.394 10.854,24.779 C10.861,24.779 13.552,19.997 18.480,18.619 ZM26.690,18.232 C26.046,23.180 22.326,25.240 22.326,25.240 C21.704,21.609 20.412,18.188 20.412,18.188 C20.412,18.188 23.389,17.695 26.690,18.232 Z" class="cls-1"/>
</svg>
