<svg xmlns="http://www.w3.org/2000/svg" xmlns:xlink="http://www.w3.org/1999/xlink" preserveAspectRatio="xMidYMid" width="49" height="48.03" viewBox="0 0 49 48.03">
  <defs>
    <style>
      .cls-1 {
        fill: #fff;
        filter: url(#drop-shadow-1);
        fill-rule: evenodd;
      }
    </style>

    <filter id="drop-shadow-1" filterUnits="userSpaceOnUse">
      <feOffset dy="1" in="SourceAlpha"/>
      <feGaussianBlur stdDeviation="1" result="dropBlur"/>
      <feFlood flood-opacity="0.25"/>
      <feComposite operator="in" in2="dropBlur" result="dropShadowComp"/>
      <feComposite in="SourceGraphic" result="shadowed"/>
    </filter>
  </defs>
  <path d="M24.506,46.520 C12.080,46.520 2.006,36.446 2.006,24.020 C2.006,11.593 12.080,1.520 24.506,1.520 C36.932,1.520 47.006,11.593 47.006,24.020 C47.006,36.446 36.932,46.520 24.506,46.520 ZM36.468,21.794 C34.730,15.744 30.554,15.744 30.554,15.744 C30.554,15.744 32.327,14.738 32.275,14.125 C31.730,13.733 30.636,14.517 30.544,14.517 C30.820,14.323 30.656,13.771 30.298,13.562 C29.770,13.614 29.310,14.585 29.310,14.585 C29.310,14.585 29.051,14.108 28.816,14.108 C26.021,14.875 24.052,21.326 24.061,21.334 C14.934,15.173 14.329,16.358 14.329,16.375 C13.613,17.977 16.391,20.005 16.391,20.005 L15.597,20.029 C15.597,20.029 14.430,19.990 14.685,20.824 C14.945,21.889 16.329,22.993 16.340,23.005 C17.022,23.328 17.874,23.021 17.874,23.021 C17.874,23.021 16.971,23.493 16.399,23.850 C15.457,24.459 16.134,24.999 16.236,25.101 C17.463,26.413 19.391,26.328 19.391,26.328 C19.391,26.328 18.495,27.402 18.488,27.810 C18.488,28.475 19.084,28.885 19.135,28.935 C19.668,29.300 20.458,29.345 20.465,29.345 C15.526,34.577 9.574,29.314 9.574,29.293 C10.239,33.128 15.880,36.827 25.799,35.395 C33.843,34.117 36.417,25.305 36.417,25.305 C36.417,25.305 39.740,25.492 40.115,23.516 C39.076,23.703 37.576,23.397 37.576,23.397 C37.576,23.397 40.132,22.289 40.252,20.959 C38.752,22.118 36.519,21.794 36.468,21.794 Z" class="cls-1"/>
</svg>
